<svg width="512" height="512" viewBox="0 0 512 512" fill="none" xmlns="http://www.w3.org/2000/svg">
<path d="M198.208 65.4346C217.654 11.51 293.916 11.5102 313.363 65.4346L344.599 152.06L436.642 155.003C493.938 156.833 517.505 229.363 472.227 264.521L399.492 320.999L425.139 409.442C441.103 464.499 379.406 509.326 331.977 477.131L255.788 425.407L179.598 477.131C132.169 509.327 70.4692 464.499 86.4335 409.442L112.076 320.995L39.3446 264.521C-5.93088 229.363 17.6373 156.833 74.9325 155.003L166.969 152.06L198.208 65.4346ZM271.358 161.007C266.818 144.834 243.89 144.834 239.35 161.007L224.475 213.988C222.908 219.57 218.546 223.932 212.965 225.499L159.983 240.374C143.81 244.915 143.81 267.841 159.983 272.382L212.965 287.257C218.546 288.824 222.908 293.186 224.475 298.768L239.35 351.749C243.89 367.922 266.818 367.922 271.358 351.749L286.232 298.768C287.799 293.186 292.162 288.824 297.744 287.257L350.724 272.382C366.898 267.841 366.898 244.915 350.724 240.374L297.744 225.499C292.162 223.932 287.799 219.57 286.232 213.988L271.358 161.007Z" fill="#FFB623"/>
</svg>
