<svg width="862" height="145" viewBox="0 0 862 145" fill="none" xmlns="http://www.w3.org/2000/svg">
<path d="M828.055 49.6719C833.992 49.6719 839.188 51.0781 843.641 53.8906C848.094 56.7031 851.57 60.668 854.07 65.7852C856.57 70.8633 857.82 76.8203 857.82 83.6562C857.82 90.375 856.57 96.2734 854.07 101.352C851.57 106.43 848.094 110.375 843.641 113.188C839.188 116 833.992 117.406 828.055 117.406C822.156 117.406 816.98 116 812.527 113.188C808.074 110.375 804.598 106.43 802.098 101.352C799.637 96.2734 798.406 90.375 798.406 83.6562C798.406 76.8203 799.637 70.8633 802.098 65.7852C804.598 60.668 808.074 56.7031 812.527 53.8906C816.98 51.0781 822.156 49.6719 828.055 49.6719ZM295.027 49.6719C301.902 49.6719 307.801 51.0977 312.723 53.9492C317.684 56.7617 321.473 60.707 324.09 65.7852C326.746 70.8242 328.074 76.7227 328.074 83.4805C328.074 90.1992 326.746 96.0977 324.09 101.176C321.473 106.215 317.684 110.16 312.723 113.012C307.801 115.824 301.902 117.23 295.027 117.23C288.152 117.23 282.254 115.824 277.332 113.012C272.41 110.16 268.621 106.215 265.965 101.176C263.348 96.0977 262.039 90.1992 262.039 83.4805C262.039 76.7227 263.348 70.8242 265.965 65.7852C268.621 60.707 272.41 56.7617 277.332 53.9492C282.254 51.0977 288.152 49.6719 295.027 49.6719ZM409.227 49.6719C413.875 49.6719 418.133 50.4141 422 51.8984C425.906 53.3438 429.266 55.4922 432.078 58.3438C434.93 61.1562 437.117 64.6328 438.641 68.7734C440.203 72.9141 440.984 77.6992 440.984 83.1289V88.2852H397.351C397.449 90.9386 397.969 93.2629 398.914 95.2578C400.008 97.4844 401.531 99.2031 403.484 100.414C405.477 101.586 407.762 102.172 410.34 102.172C412.137 102.172 413.777 101.918 415.262 101.41C416.746 100.902 418.016 100.16 419.07 99.1836C420.125 98.168 420.926 96.957 421.473 95.5508L440.574 96.0781C439.793 100.375 438.074 104.105 435.418 107.27C432.762 110.434 429.285 112.895 424.988 114.652C420.691 116.371 415.691 117.23 409.988 117.23C403.113 117.23 397.195 115.883 392.234 113.188C387.273 110.453 383.465 106.566 380.809 101.527C378.191 96.4883 376.883 90.4727 376.883 83.4805C376.883 76.7227 378.211 70.8242 380.867 65.7852C383.523 60.707 387.273 56.7617 392.117 53.9492C396.961 51.0977 402.664 49.6719 409.227 49.6719ZM710.809 49.6719C719.676 49.6719 726.648 51.5273 731.727 55.2383C736.844 58.9492 739.656 64.0469 740.164 70.5312L721.121 71C720.848 68.9688 719.793 67.2891 717.957 65.9609C716.16 64.6328 713.895 63.9688 711.16 63.9688C708.738 63.9688 706.688 64.457 705.008 65.4336C703.367 66.3711 702.547 67.6602 702.547 69.3008C702.547 70.5898 703.055 71.7227 704.07 72.6992C705.125 73.6758 707.039 74.4375 709.812 74.9844L722.41 77.3281C728.934 78.5391 733.797 80.5898 737 83.4805C740.203 86.3711 741.805 90.2188 741.805 95.0234C741.805 99.5156 740.496 103.422 737.879 106.742C735.262 110.062 731.668 112.641 727.098 114.477C722.566 116.312 717.371 117.23 711.512 117.23C702.176 117.23 694.812 115.316 689.422 111.488C684.031 107.621 680.945 102.445 680.164 95.9609L700.73 95.4922C701.199 97.875 702.391 99.6914 704.305 100.941C706.219 102.152 708.641 102.758 711.57 102.758C714.266 102.758 716.453 102.27 718.133 101.293C719.812 100.277 720.652 98.9688 720.652 97.3672C720.652 94.5938 717.996 92.6992 712.684 91.6836L701.258 89.457C694.734 88.207 689.852 86 686.609 82.8359C683.406 79.6719 681.805 75.5703 681.805 70.5312C681.805 66.1172 682.977 62.3672 685.32 59.2812C687.703 56.1953 691.062 53.832 695.398 52.1914C699.734 50.5117 704.871 49.6719 710.809 49.6719ZM482.059 27.5234C488.816 27.5234 494.695 28.6758 499.695 30.9805C504.695 33.2461 508.562 36.4492 511.297 40.5898C514.031 44.6914 515.438 49.457 515.516 54.8867H495.242C495.008 51.7617 493.758 49.3398 491.492 47.6211C489.266 45.8633 486.102 44.9844 482 44.9844C479.266 44.9844 476.98 45.3359 475.145 46.0391C473.348 46.7422 471.98 47.7188 471.043 48.9688C470.145 50.2188 469.695 51.625 469.695 53.1875C469.695 54.9062 470.203 56.3711 471.219 57.582C472.234 58.793 473.699 59.8086 475.613 60.6289C477.566 61.4492 479.852 62.1523 482.469 62.7383L489.91 64.4375C494.207 65.375 498.016 66.625 501.336 68.1875C504.656 69.75 507.449 71.6055 509.715 73.7539C512.02 75.9023 513.758 78.3828 514.93 81.1953C516.102 84.0078 516.688 87.1523 516.688 90.6289C516.688 96.1758 515.301 100.941 512.527 104.926C509.793 108.871 505.848 111.898 500.691 114.008C495.535 116.117 489.324 117.172 482.059 117.172C474.754 117.172 468.387 116.078 462.957 113.891C457.527 111.664 453.289 108.324 450.242 103.871C447.234 99.3789 445.691 93.7344 445.613 86.9375H465.77C465.965 89.7109 466.727 92.0547 468.055 93.9688C469.422 95.8438 471.258 97.2695 473.562 98.2461C475.906 99.2227 478.641 99.7109 481.766 99.7109C484.617 99.7109 487.039 99.3203 489.031 98.5391C491.062 97.7578 492.625 96.6836 493.719 95.3164C494.812 93.9492 495.359 92.3672 495.359 90.5703C495.359 88.9297 494.852 87.543 493.836 86.4102C492.82 85.2383 491.277 84.2227 489.207 83.3633C487.176 82.4648 484.559 81.6641 481.355 80.9609L472.156 78.8516C464.656 77.1328 458.738 74.3398 454.402 70.4727C450.066 66.5664 447.898 61.2734 447.898 54.5938C447.898 49.2031 449.363 44.4766 452.293 40.4141C455.223 36.3516 459.246 33.1875 464.363 30.9219C469.52 28.6562 475.418 27.5234 482.059 27.5234ZM597.02 49.6719C601.16 49.6719 604.988 50.1602 608.504 51.1367C612.02 52.1133 615.086 53.5391 617.703 55.4141C620.32 57.2891 622.352 59.5742 623.797 62.2695C625.242 64.9648 625.965 68.0312 625.965 71.4688V116H606.336V106.801H605.867C604.656 109.066 603.152 110.961 601.355 112.484C599.559 114.008 597.449 115.18 595.027 116C592.645 116.781 589.93 117.172 586.883 117.172C582.703 117.172 578.973 116.469 575.691 115.062C572.449 113.617 569.91 111.469 568.074 108.617C566.238 105.766 565.32 102.172 565.32 97.8359C565.32 94.2031 565.945 91.1367 567.195 88.6367C568.484 86.1367 570.242 84.1055 572.469 82.543C574.734 80.9805 577.332 79.7891 580.262 78.9688C583.191 78.1094 586.316 77.5625 589.637 77.3281C593.348 76.9766 596.336 76.625 598.602 76.2734C600.867 75.9219 602.508 75.375 603.523 74.6328C604.578 73.8906 605.105 72.8555 605.105 71.5273V71.2344C605.105 69.0859 604.363 67.4062 602.879 66.1953C601.395 64.9844 599.363 64.3789 596.785 64.3789C594.012 64.3789 591.785 64.9844 590.105 66.1953C588.465 67.4062 587.41 69.0469 586.941 71.1172L567.781 70.4727C568.328 66.4883 569.773 62.9336 572.117 59.8086C574.5 56.6445 577.762 54.1641 581.902 52.3672C586.082 50.5703 591.121 49.6719 597.02 49.6719ZM549.148 50.4922H560.984V65.9023H549.148V95.375C549.148 97.1328 549.578 98.4609 550.438 99.3594C551.297 100.219 552.645 100.648 554.48 100.648C555.184 100.648 555.984 100.57 556.883 100.414C557.82 100.258 558.543 100.102 559.051 99.9453L562.156 115.062C559.812 115.727 557.625 116.195 555.594 116.469C553.602 116.781 551.629 116.938 549.676 116.938C542.723 116.938 537.43 115.297 533.797 112.016C530.164 108.695 528.348 103.93 528.348 97.7188V65.9023H519.734V50.4922H528.348V34.9062H549.148V50.4922ZM758.035 101.352C760.145 101.352 761.941 102.113 763.426 103.637C764.949 105.121 765.711 106.918 765.711 109.027C765.711 111.137 764.949 112.953 763.426 114.477C761.941 115.961 760.145 116.703 758.035 116.703C755.926 116.703 754.109 115.961 752.586 114.477C751.102 112.953 750.359 111.137 750.359 109.027C750.359 106.918 751.102 105.121 752.586 103.637C754.109 102.113 755.926 101.352 758.035 101.352ZM205.203 82.7188H206.199L228.406 28.6953H254.598V116H233.914V62.3281H233.328L212.234 115.414H199.109L178.191 62.1523H177.488V116H156.922V28.6953H183.055L205.203 82.7188ZM371.668 49.6719C372.645 49.6719 373.641 49.7305 374.656 49.8477C375.711 49.9648 376.668 50.1602 377.527 50.4336V68.4805C376.512 68.1289 375.203 67.875 373.602 67.7188C372 67.5234 370.574 67.4258 369.324 67.4258C366.863 67.4258 364.637 67.9727 362.645 69.0664C360.691 70.1602 359.148 71.6836 358.016 73.6367C356.922 75.5898 356.375 77.8555 356.375 80.4336V116H335.516V50.4922H355.73V62.5039H356.434C357.605 58.1289 359.539 54.9062 362.234 52.8359C364.969 50.7266 368.113 49.6719 371.668 49.6719ZM672.02 49.6719C672.996 49.6719 673.992 49.7305 675.008 49.8477C676.062 49.9648 677.02 50.1602 677.879 50.4336V68.4805C676.863 68.1289 675.555 67.875 673.953 67.7188C672.352 67.5234 670.926 67.4258 669.676 67.4258C667.215 67.4258 664.988 67.9727 662.996 69.0664C661.043 70.1602 659.5 71.6836 658.367 73.6367C657.273 75.5898 656.727 77.8555 656.727 80.4336V116H635.867V50.4922H656.082V62.5039H656.785C657.957 58.1289 659.891 54.9062 662.586 52.8359C665.32 50.7266 668.465 49.6719 672.02 49.6719ZM788.68 116H778.719V50.4922H788.68V116ZM828.055 58.6953C823.602 58.6953 819.93 59.8672 817.039 62.2109C814.148 64.5156 812 67.5625 810.594 71.3516C809.188 75.1406 808.484 79.2422 808.484 83.6562C808.484 87.9922 809.188 92.0547 810.594 95.8438C812 99.5938 814.148 102.621 817.039 104.926C819.93 107.23 823.602 108.383 828.055 108.383C832.586 108.383 836.297 107.23 839.188 104.926C842.078 102.621 844.227 99.5938 845.633 95.8438C847.039 92.0547 847.742 87.9922 847.742 83.6562C847.742 79.2422 847.039 75.1406 845.633 71.3516C844.227 67.5625 842.078 64.5156 839.188 62.2109C836.297 59.8672 832.586 58.6953 828.055 58.6953ZM605.281 86.5273C604.695 86.8398 603.973 87.1328 603.113 87.4062C602.293 87.6406 601.375 87.875 600.359 88.1094C599.344 88.3438 598.309 88.5391 597.254 88.6953C596.238 88.8516 595.262 89.0078 594.324 89.1641C592.332 89.4375 590.633 89.9258 589.227 90.6289C587.859 91.293 586.824 92.1328 586.121 93.1484C585.418 94.1641 585.066 95.3945 585.066 96.8398C585.066 98.9883 585.828 100.629 587.352 101.762C588.875 102.895 590.848 103.461 593.27 103.461C595.496 103.461 597.508 103.012 599.305 102.113C601.141 101.176 602.586 99.9062 603.641 98.3047C604.734 96.7031 605.281 94.8281 605.281 92.6797V86.5273ZM295.145 65.5508C292.605 65.5508 290.438 66.293 288.641 67.7773C286.844 69.2227 285.496 71.2734 284.598 73.9297C283.699 76.5859 283.25 79.7305 283.25 83.3633C283.25 86.957 283.699 90.1211 284.598 92.8555C285.496 95.5508 286.844 97.6406 288.641 99.125C290.438 100.609 292.605 101.352 295.145 101.352C297.684 101.352 299.812 100.609 301.531 99.125C303.25 97.6406 304.559 95.5508 305.457 92.8555C306.395 90.1211 306.863 86.957 306.863 83.3633C306.863 79.7305 306.395 76.5859 305.457 73.9297C304.559 71.2734 303.25 69.2227 301.531 67.7773C299.812 66.293 297.684 65.5508 295.145 65.5508ZM409.461 64.6719C406.844 64.6719 404.637 65.2578 402.84 66.4297C401.043 67.6016 399.676 69.2422 398.738 71.3516C398.082 72.8007 397.657 74.4415 397.46 76.2734H421.21C421.012 74.4494 420.612 72.8282 420.008 71.4102C419.109 69.2617 417.781 67.6016 416.023 66.4297C414.266 65.2578 412.078 64.6719 409.461 64.6719ZM783.758 26C785.711 26 787.391 26.6641 788.797 27.9922C790.203 29.3203 790.906 30.9219 790.906 32.7969C790.906 34.6719 790.203 36.2734 788.797 37.6016C787.391 38.9297 785.711 39.5938 783.758 39.5938C781.805 39.5938 780.125 38.9297 778.719 37.6016C777.312 36.2734 776.609 34.6719 776.609 32.7969C776.609 30.9219 777.312 29.3203 778.719 27.9922C780.125 26.6641 781.805 26 783.758 26Z" fill="#500B42"/>
<path d="M50.279 14.6581C55.4196 0.447285 75.5795 0.447348 80.7202 14.6581L88.9772 37.4864L113.309 38.262C128.455 38.7444 134.685 57.8582 122.716 67.1235L103.488 82.007L110.268 105.315C114.488 119.823 98.1786 131.637 85.6409 123.152L65.5003 109.522L45.3594 123.152C32.8217 131.637 16.5114 119.824 20.7316 105.315L27.5102 82.006L8.28369 67.1235C-3.68485 57.8581 2.54539 38.7444 17.6913 38.262L42.021 37.4864L50.279 14.6581ZM69.6163 39.8442C68.416 35.5821 62.3551 35.5821 61.1548 39.8442L57.2228 53.8064C56.8086 55.2774 55.6555 56.4269 54.18 56.8399L40.1744 60.7599C35.899 61.9564 35.899 67.9983 40.1744 69.1949L54.18 73.1149C55.6555 73.5279 56.8086 74.6774 57.2228 76.1483L61.1548 90.1106C62.3551 94.3727 68.416 94.3727 69.6163 90.1106L73.5482 76.1483C73.9625 74.6773 75.1157 73.5279 76.5913 73.1149L90.5966 69.1949C94.872 67.9983 94.872 61.9564 90.5966 60.7599L76.5913 56.8399C75.1157 56.4269 73.9625 55.2774 73.5482 53.8064L69.6163 39.8442Z" fill="#FFB623"/>
</svg>
